PathFileType	4	(X/Y/Z)	c:/Users/goper/Files/vsCode/490R/osim_files/C15/C15_SSWS_02.trc
DataRate	CameraRate	NumFrames	NumMarkers	Units                	OrigDataRate	OrigDataStartFrame	OrigNumFrames
250.00	250.00	9	36	mm	250.0	1190	2379
                Frame#	Time	LPSIS			LASIS			LTH1			LTH2			LTH3			LTH4			LLFE			LMFE			LSH1			LSH2			LSH3			LSH4			LLMAL			LMMAL			LCAL			LMTP5			LTOE			LMTP1			RPSIS			RASIS			RTH1			RTH2			RTH3			RTH4			RLFE			RMFE			RSH1			RSH2			RSH3			RSH4			RLMAL			RMMAL			RCAL			RMTP1			RTOE			RMTP5		
		X1	Y1	Z1	X2	Y2	Z2	X3	Y3	Z3	X4	Y4	Z4	X5	Y5	Z5	X6	Y6	Z6	X7	Y7	Z7	X8	Y8	Z8	X9	Y9	Z9	X10	Y10	Z10	X11	Y11	Z11	X12	Y12	Z12	X13	Y13	Z13	X14	Y14	Z14	X15	Y15	Z15	X16	Y16	Z16	X17	Y17	Z17	X18	Y18	Z18	X19	Y19	Z19	X20	Y20	Z20	X21	Y21	Z21	X22	Y22	Z22	X23	Y23	Z23	X24	Y24	Z24	X25	Y25	Z25	X26	Y26	Z26	X27	Y27	Z27	X28	Y28	Z28	X29	Y29	Z29	X30	Y30	Z30	X31	Y31	Z31	X32	Y32	Z32	X33	Y33	Z33	X34	Y34	Z34	X35	Y35	Z35	X36	Y36	Z36

1190	4.75600	-124.39323	1019.98431	301.92136	-286.12845	994.42511	373.82434	-177.35258	608.70947	418.41675	-172.99904	563.14716	400.47897	-228.42543	612.59241	411.94055	-225.16673	567.67871	400.98068	-177.70287	484.57230	379.34262	-177.50662	474.49048	259.06189	-98.02586	385.61325	389.39005	-90.75581	341.44595	392.09344	-158.71001	369.19739	388.45120	-142.85512	328.19644	390.64783	-63.84801	82.68313	316.66287	-85.20738	110.34622	229.60811	-1.79114	60.04193	270.57208	-182.59744	36.23545	337.23663	-239.62929	56.33929	274.28537	-199.08075	29.53909	215.89668	-129.58446	1017.33649	180.96442	-288.55780	997.81122	124.05674	-357.66071	648.33020	56.80241	-377.71573	606.81818	63.90809	-411.91119	671.70856	70.86847	-426.07712	625.74652	73.70575	-421.06931	525.30487	94.45486	-415.47778	504.51437	210.13544	-339.86133	421.64606	73.07972	-339.81418	378.29984	68.53039	-403.69370	413.34961	70.34130	-391.70847	372.69720	64.30785	-357.49512	108.56348	115.93945	-399.76129	130.52155	198.20964	-303.05994	85.92810	172.20201	-507.12369	56.50888	182.51451	-533.81934	76.86296	124.95975	-464.98257	43.36020	73.05657
1191	4.76000	-128.04301	1019.55829	301.52850	-289.50009	993.96570	373.95694	-178.94395	608.97791	418.83212	-174.85443	563.03308	400.46896	-230.39003	612.34741	412.00470	-227.06958	567.41595	401.05209	-179.14429	484.46976	379.42654	-179.21739	474.26111	259.12680	-99.05801	385.81088	389.32126	-91.76157	341.60281	392.02374	-159.67233	369.23959	388.53873	-143.65158	328.20178	390.70850	-63.99319	82.90275	316.60349	-85.66325	110.41954	229.41872	-1.88119	60.16170	270.50439	-182.57642	36.21844	337.27386	-239.70088	56.26823	274.31671	-199.06406	29.54905	215.91061	-133.70020	1016.83514	180.57100	-292.51428	997.58997	123.96724	-360.69464	647.13568	57.34197	-381.10052	606.64496	66.88184	-414.91833	670.43237	71.51020	-428.99689	624.42743	74.47947	-424.10938	524.20312	94.96120	-417.99661	503.23996	210.41196	-344.94202	418.69711	73.23038	-345.98553	375.36057	68.77740	-408.97089	412.13834	70.69492	-398.27866	371.26517	64.51099	-371.25168	106.05339	115.91916	-412.72623	129.21390	198.26828	-317.32141	81.97425	172.06862	-521.99268	57.85726	182.94939	-548.48297	78.70998	125.32565	-480.44263	43.44778	73.49488
1192	4.76400	-131.68288	1019.11707	301.13971	-292.92328	993.61542	374.03894	-181.42239	608.53357	418.38382	-176.62300	563.00739	400.49576	-232.50468	612.13177	412.08582	-228.80096	567.25189	401.18488	-180.76997	484.37366	379.46143	-180.85852	474.12656	259.12891	-100.21812	386.01123	389.22742	-92.61384	341.85648	391.98004	-160.67754	369.21375	388.49179	-144.47072	328.19998	390.74130	-64.15490	83.13850	316.52548	-85.79241	110.66635	229.46510	-2.00709	60.30445	270.43857	-182.59378	36.22654	337.28894	-239.53270	56.23637	274.21848	-199.06241	29.54421	215.92177	-137.80383	1016.37988	180.16844	-296.91833	997.05334	124.36570	-363.60822	646.06305	57.76568	-383.83063	605.32819	67.35871	-417.68314	669.10022	72.15192	-431.73709	623.00226	75.17036	-427.03714	523.10913	95.39034	-420.44656	501.80020	210.74591	-349.98276	415.81506	73.53900	-351.95401	372.48605	69.41146	-413.30084	411.07239	70.51500	-404.62201	369.85004	64.78841	-384.90921	103.77160	115.86331	-425.31665	127.95129	198.28703	-331.40204	78.38261	171.83337	-536.68756	59.58012	183.46898	-562.75458	80.96995	126.01158	-495.93082	43.89991	73.90567
1193	4.76800	-135.28197	1018.68085	300.71909	-296.18832	993.28217	374.19907	-182.96764	608.91980	418.80328	-179.80510	562.36365	399.83429	-234.52382	611.95642	412.10724	-230.68095	567.01416	401.15302	-182.21225	484.23053	379.52136	-182.63487	473.97800	259.15527	-101.31915	386.14386	389.11127	-93.55074	342.06042	391.84525	-161.70805	369.24680	388.51877	-145.40178	328.24545	390.76248	-64.28483	83.35973	316.46414	-86.32446	110.32862	228.57133	-2.08970	60.45441	270.33270	-182.49832	36.27085	337.31458	-239.64546	56.22607	274.32236	-199.05742	29.55493	215.94124	-141.93887	1015.89642	179.75333	-301.03882	996.74695	124.41474	-366.48254	644.87952	58.08444	-386.40659	604.03436	67.82082	-420.76706	667.69843	72.67863	-434.47046	621.66602	75.81636	-429.90399	521.92664	95.89371	-422.82391	500.28113	211.03912	-354.87836	413.00400	73.89641	-358.81116	369.57788	68.98762	-419.34891	409.78275	71.43759	-410.84763	368.45740	65.14104	-398.49329	101.79266	115.86057	-437.85480	127.09593	198.51105	-345.43542	74.90350	171.60851	-551.11963	61.61622	184.22971	-576.94720	83.64230	126.77776	-511.17859	44.79395	74.41463
1194	4.77200	-138.89001	1018.25446	300.28940	-299.65302	992.87360	374.28085	-185.01228	608.88214	418.79285	-180.40927	562.91583	400.39655	-236.43359	611.72247	412.18283	-232.46803	566.84967	401.33813	-183.86256	484.10779	379.54150	-184.63347	473.79575	259.25406	-101.92938	386.69727	388.96103	-94.06556	342.72510	391.38373	-162.16183	370.02789	387.65167	-146.17189	328.27673	390.82343	-64.41163	83.63381	316.38022	-86.38866	110.79169	228.60809	-2.14852	60.65195	270.26501	-182.53375	36.27048	337.34152	-239.70174	56.18304	274.34140	-198.95792	29.67010	215.95575	-146.01056	1015.35870	179.33466	-305.55536	996.27094	124.53785	-369.21411	643.63507	58.41292	-388.97086	602.80243	68.17178	-423.51138	666.20184	73.17735	-437.64429	620.54022	75.93031	-432.64597	520.75873	96.34764	-425.15106	498.59323	211.36145	-359.72495	410.21481	74.38643	-365.00793	366.87134	69.24359	-424.52206	408.65186	71.77924	-417.17813	367.13522	65.46725	-411.88644	100.15685	115.89372	-450.26929	126.67287	198.91943	-359.33112	71.71677	171.41904	-565.32397	63.98444	185.02203	-590.65472	86.75689	127.71827	-526.27863	46.06594	75.05585
1195	4.77600	-142.58572	1017.72858	299.79831	-302.96753	992.58575	374.45511	-187.07481	608.86963	418.73151	-182.14493	562.97198	400.41827	-238.49529	611.51385	412.31577	-234.42906	566.61700	401.33533	-185.37134	484.07071	379.58774	-186.63387	473.61041	259.38907	-103.47832	386.64127	388.77209	-95.09708	343.19672	390.89590	-163.55411	369.92694	387.45584	-147.03860	328.34930	390.82495	-64.53318	83.94441	316.27585	-86.66753	110.98351	228.53188	-2.19097	60.90120	270.17154	-182.51645	36.27518	337.34735	-239.74138	56.16049	274.38394	-198.98141	29.71915	216.01630	-150.13745	1014.81750	178.83266	-310.02441	995.81958	124.75395	-371.83801	642.43524	58.63486	-391.16760	601.78937	68.77038	-426.25302	664.82837	73.68511	-439.99960	619.09045	76.44306	-435.43164	519.50098	96.77529	-427.34570	497.07565	211.55188	-364.98630	406.11142	73.31597	-371.18774	364.31561	69.46981	-429.67438	407.50754	72.20883	-423.30280	365.84274	65.79903	-425.07510	98.73897	115.95737	-462.32156	126.19077	199.18785	-372.97141	68.82211	171.10759	-579.11212	66.74413	185.97310	-604.22192	90.11998	128.76854	-541.39355	47.66663	75.77236
1196	4.78000	-146.20409	1017.26392	299.35199	-306.40994	992.26044	374.52484	-189.14954	608.85602	418.67197	-184.15802	562.96320	400.34970	-240.55804	611.29846	412.31573	-236.31683	566.44751	401.37564	-187.12312	483.94989	379.58051	-188.62325	473.47192	259.44046	-104.65652	386.91714	388.57935	-96.07577	343.48666	390.77600	-164.38818	370.01083	387.58069	-148.06931	328.39481	390.78027	-64.66655	84.28739	316.12631	-86.81715	111.15153	228.51077	-2.26707	61.19840	270.04974	-182.54013	36.29082	337.31290	-239.79942	56.15047	274.39655	-198.93187	29.76138	216.00218	-154.29077	1014.33710	178.35333	-314.39697	995.40387	125.02716	-374.41818	641.21466	58.76849	-393.82465	600.28229	68.47888	-428.97098	663.32935	74.08499	-442.32507	617.44574	76.88132	-438.15381	518.26892	97.09134	-429.56680	495.38406	211.86900	-370.15668	403.60440	73.49818	-377.20398	361.86194	69.77205	-433.84448	406.51993	71.96434	-429.31506	364.56613	66.23607	-437.93433	97.61288	116.06135	-474.19870	125.89460	199.50940	-386.64026	66.05027	170.92819	-592.66309	69.72936	186.97424	-617.40924	93.76155	129.96938	-556.01520	49.56170	76.54958
1197	4.78400	-149.84903	1016.75226	298.80325	-309.88116	991.86914	374.63596	-191.18147	608.86292	418.60992	-186.15024	562.93292	400.22818	-242.67253	611.12347	412.35568	-238.39053	566.31012	401.41608	-188.75462	483.86084	379.58838	-190.67355	473.33408	259.47772	-105.72261	387.25177	388.37183	-97.07389	343.80209	390.53412	-165.66020	369.97467	387.54333	-148.91486	328.45618	390.77264	-64.83015	84.66084	315.96295	-87.18184	111.43736	228.39787	-2.39168	61.51626	269.95047	-182.55354	36.30140	337.29434	-239.87169	56.12725	274.41187	-198.96527	29.75539	216.02528	-158.41759	1013.80133	177.84161	-319.00262	994.79120	125.39675	-376.99542	640.01886	58.78493	-396.08038	599.16156	68.58832	-431.66095	661.82581	74.44447	-444.70758	615.98419	77.08930	-440.85822	517.05786	97.40006	-431.91626	493.68292	212.11859	-375.35068	401.20642	73.64879	-383.34351	359.51428	69.96194	-438.85962	405.42468	72.26044	-436.01730	363.65936	66.13326	-450.74319	96.53439	116.18443	-485.71317	125.94832	199.86769	-400.01108	63.67328	170.71066	-605.80811	72.82456	188.12875	-630.19226	97.50902	131.25929	-570.53052	51.67764	77.43807
1198	4.78800	-153.54079	1016.22083	298.25800	-313.24564	991.60999	374.74963	-193.29182	608.84985	418.50043	-188.00771	563.02899	400.15259	-244.71341	610.97809	412.47394	-240.33095	566.16852	401.46545	-190.40108	483.84418	379.62097	-192.82236	473.13110	259.54843	-107.07438	387.49033	388.10645	-98.14400	344.14230	390.32477	-166.78098	369.93253	387.47684	-149.79456	328.53186	390.75116	-65.12855	84.89012	315.72360	-87.53687	111.84788	228.34619	-2.47083	61.80436	269.84442	-182.64917	36.15287	337.20901	-239.95314	56.10545	274.42087	-198.98636	29.75803	216.04076	-162.69939	1013.16351	177.37126	-323.36481	994.47040	125.51388	-379.66080	638.80902	58.65405	-398.62030	597.54193	68.03455	-434.29974	660.32306	74.60706	-447.09158	614.33801	77.10317	-443.60812	515.69482	97.63698	-434.23224	492.08130	212.29802	-380.49463	398.91815	73.84659	-389.44382	357.13358	70.18410	-444.71832	404.31058	72.99464	-441.67514	362.49057	66.61823	-463.43835	95.85209	116.23083	-497.00818	125.97719	200.09840	-413.05847	61.58334	170.59332	-618.62231	76.20462	189.09947	-642.69720	101.40453	132.60712	-584.51880	53.98988	78.40577
